# xmcd
#
# Track frame offsets:
#	150
#	21685
#	38251
#	58935
#	74878
#	93472
#	114223
#	133302
#	149307
#	167553
#	188132
#
# Disc length: 2779 seconds
#
# Revision: 2
# Processed by: cddbd v1.5.2PL0 Copyright (c) Steve Scherf et al.
# Submitted via: EZCDAudioConverter 1.3.4.1
#
DISCID=a30ad90b
DTITLE=Full Flava - Colour Of My Soul
DYEAR=2003
DGENRE=R&B
TTITLE0=Stories Feat. Carleen Anderson
TTITLE1=Round And Round Feat. Romina Johnson
TTITLE2=Make It Right Feat. Donna Odain
TTITLE3=Love Holds No Limit Feat. Beverlei Brown
TTITLE4=Nature Boy Feat. Hazel Fernandes
TTITLE5=Perfect Love Feat. Alison Limerick
TTITLE6=For My Baby Feat. Ce Ce Peniston
TTITLE7=You Are Feat. Carleen Anderson
TTITLE8=I'm Not Giving Up (This Fesling) Feat. Alison Limerick
TTITLE9=I Think About Him Feat. Ce Ce Peniston
TTITLE10=Colour Of My Soul Feat. Donna Gardier
EXTD=
EXTT0=
EXTT1=
EXTT2=
EXTT3=
EXTT4=
EXTT5=
EXTT6=
EXTT7=
EXTT8=
EXTT9=
EXTT10=
PLAYORDER=
